<?xml version="1.0" encoding="utf-8"?>
<!-- Generator: Adobe Illustrator 19.0.0, SVG Export Plug-In . SVG Version: 6.00 Build 0)  -->
<svg version="1.2" baseProfile="tiny" id="Layer_1" xmlns="http://www.w3.org/2000/svg" xmlns:xlink="http://www.w3.org/1999/xlink"
	 x="0px" y="0px" viewBox="0 0 720 270" xml:space="preserve">
<g id="XMLID_23_">
	<path id="XMLID_43_" fill-rule="evenodd" fill="#1D1C1A" d="M528.5,171.1c0-12.8-10.3-23.1-23-23.1c-12.7,0-23,10.3-23,23.1
		c0,12.4,8.4,21.9,20.9,22.3v0c6.4,0.1,12.7-3.4,14.9-7.9l0,0l0,0.3v6.8h10.3V171.1L528.5,171.1L528.5,171.1z M505.4,183.4
		c-7,0-12.7-5.7-12.7-12.7c0-7,5.7-12.7,12.7-12.7c7,0,12.7,5.7,12.7,12.7C518.1,177.7,512.4,183.4,505.4,183.4"/>
	<path id="XMLID_40_" fill-rule="evenodd" fill="#1D1C1A" d="M359.1,171.1c0-12.8-10.3-23.1-23-23.1c-12.7,0-23,10.3-23.1,23.1
		c0,12.4,8.4,21.9,20.9,22.3l0,0c6.4,0.1,12.7-3.4,14.9-7.9l0,0l0,0.3v6.8h10.3V171.1L359.1,171.1L359.1,171.1z M336.1,183.4
		c-7,0-12.7-5.7-12.7-12.7c0-7,5.7-12.7,12.7-12.7c7,0,12.7,5.7,12.7,12.7C348.8,177.7,343.1,183.4,336.1,183.4"/>
	<path id="XMLID_37_" fill-rule="evenodd" fill="#1D1C1A" d="M289.4,148c-5.5,0-10.4,2.3-13.8,6c-3.5-3.7-8.4-6-13.9-6
		c-10.5,0-19,8.6-19,19.1v25.6H253v-25.6c0-4.8,3.9-8.7,8.7-8.7c4.8,0,8.6,3.9,8.7,8.6v0.1v25.6h10.3h0v-25.6c0,0,0-0.1,0-0.1
		c0.1-4.8,3.9-8.7,8.7-8.7c4.8,0,8.7,3.9,8.7,8.7v25.6h10.3v-25.6C308.4,156.6,299.9,148,289.4,148"/>
	<path id="XMLID_36_" fill-rule="evenodd" fill="#1D1C1A" d="M683,148c-5.5,0-10.4,2.3-13.9,6c-3.5-3.7-8.4-6-13.8-6
		c-10.5,0-19,8.6-19,19.1v25.6h10.4v-25.6h0c0-4.8,3.9-8.7,8.7-8.7c4.8,0,8.6,3.9,8.7,8.6v0.1v25.6h10.3h0v-25.6c0,0,0-0.1,0-0.1
		c0-4.8,3.9-8.7,8.7-8.7c4.8,0,8.7,3.9,8.7,8.7h0v25.6H702v-25.6C702,156.6,693.5,148,683,148"/>
	<rect id="XMLID_35_" x="224.7" y="149.6" fill-rule="evenodd" fill="#1D1C1A" width="10.3" height="43.1"/>
	<path id="XMLID_34_" fill-rule="evenodd" fill="#1D1C1A" d="M236.6,137.7c0,3.8-3,6.8-6.8,6.8c-3.8,0-6.8-3.1-6.8-6.8
		c0-3.8,3.1-6.8,6.8-6.8C233.6,130.9,236.6,133.9,236.6,137.7"/>
	<rect id="XMLID_33_" x="417.5" y="149.6" fill-rule="evenodd" fill="#1D1C1A" width="10.3" height="43.1"/>
	<path id="XMLID_32_" fill-rule="evenodd" fill="#1D1C1A" d="M429.5,137.7c0,3.8-3.1,6.8-6.8,6.8c-3.7,0-6.8-3.1-6.8-6.8
		c0-3.8,3.1-6.8,6.8-6.8C426.4,130.9,429.5,133.9,429.5,137.7"/>
	<path id="XMLID_29_" fill="#1D1C1A" d="M409.8,171.1c0-12.8-10.3-23.1-23-23.1c-12.7,0-23,10.3-23,23.1c0,13.1,8.8,23.1,22.8,22.9
		v0c7-0.4,11.4-4.7,13-7.7v0l0,0c0,0,0,0,0,0v2.5v3.9v0.3c0,7-5.7,12.7-12.7,12.7c-5.6,0-10.3-3.6-12-8.6h-10.7
		c1.9,10.8,11.3,19,22.7,19c12.7,0,23-10.3,23-23.1v-0.3V171.1L409.8,171.1L409.8,171.1z M386.8,183.8c-7,0-12.7-5.7-12.7-12.7
		c0-7,5.7-12.7,12.7-12.7c7,0,12.7,5.7,12.7,12.7C399.5,178.1,393.8,183.8,386.8,183.8"/>
	<rect id="XMLID_28_" x="569.6" y="149.6" fill-rule="evenodd" fill="#1D1C1A" width="10.4" height="43.1"/>
	<path id="XMLID_27_" fill-rule="evenodd" fill="#1D1C1A" d="M581.6,137.7c0,3.8-3,6.8-6.8,6.8c-3.8,0-6.8-3.1-6.8-6.8
		c0-3.8,3.1-6.8,6.8-6.8C578.5,130.9,581.6,133.9,581.6,137.7"/>
	<path id="XMLID_26_" fill-rule="evenodd" fill="#1D1C1A" d="M629.9,173c0,11.7-9.5,21.2-21.2,21.2c-11.7,0-21.1-9.5-21.1-21.2v-1.3
		v-22.1h10.3v22.1v1.3c0,6,4.8,11.3,10.8,11.3s10.8-5.3,10.8-11.3l0-1.3v-22.1h10.3v22.1L629.9,173z"/>
	<path id="XMLID_25_" fill-rule="evenodd" fill="#1D1C1A" d="M435.4,169.2c0-11.7,9.5-21.2,21.2-21.2c11.7,0,21.2,9.5,21.2,21.2v1.4
		v22.1h-10.3v-22.1v-1.4c0-6-4.9-10.8-10.8-10.8c-6,0-10.8,4.9-10.8,10.8l0,1.4v22.1h-10.4v-22.1L435.4,169.2z"/>
	<path id="XMLID_24_" fill-rule="evenodd" fill="#1D1C1A" d="M563,159.7v-10.1h-8.5c-10.5,0-18.4,8.6-18.4,19.1v24h10.3v-24.3v0.3
		c0-4.8,3.2-9,8-9H563z"/>
</g>
<path id="XMLID_157_" fill="none" stroke="#1D1C1A" stroke-width="2.5" d="M116,39.1c0,0-5.9,21.9-7.2,43.6
	c-1.2,21.7-2.7,66.9,3.4,81.2c0,0,21.4,49.8,56.8,60.3c35.4,10.6,18-2.9,7.7-22c-10.3-19.1-46.4-32.4-52.3-19.9
	c-5.9,12.5-2.8,39.1,56.5,56.4c59.4,17.3-27.1-59.2-47.4-65.6c-20.2-6.5,2.2-83,16.7-107.8c14.5-24.8,43.2-57,48.4-40.2
	c5.2,16.9,11.7,115.5-31.9,135.2c-43.5,19.8-36.4,7.9-30.6-15.3c9-35.4,70.4-116.3,74.4-105.7c3.8,10.1,2.6,39.1-15.2,73
	c-18.7,35.3-61.8,63.5-86.4,68.2c-24.6,4.7-75.4-20.7-85.9-39.4c-10.5-18.7-5.5-29.5,20.4-19.8c25.9,9.7,67.3,32.3,67.4,68.2
	c0,35.9-18.5,52.2-29.6,59.1c-11.1,6.9-16.2-18.8-12.2-31.3c7.7-23.9,26.9-50.3,32.9-47.1c6,3.2,6.7,63.9-2.2,71.7
	c-8.9,7.8-22.3-17.1-18.5-39.3c5-29.4,18.8-28,14.7-42.2c-4.1-14.3-27.2-42-46.9-45.4c-15.3-2.6-17.7,4.3-12.7,20.1
	c4.9,15.9,30.5,37.1,49.5,38.5c19.1,1.5,28.9,5.1,10.1-30.1C77.3,108.2,69.3,85.3,58.7,76"/>
<path id="XMLID_16_" fill="none" stroke="#1D1C1A" stroke-width="2.5" d="M116,39.1c0,0-5.9,21.9-7.2,43.6
	c-1.2,21.7-2.7,66.9,3.4,81.2c0,0,21.4,49.8,56.8,60.3c35.4,10.6,18-2.9,7.7-22c-10.3-19.1-46.4-32.4-52.3-19.9
	c-5.9,12.5-2.8,39.1,56.5,56.4c59.4,17.3-27.1-59.2-47.4-65.6c-20.2-6.5,2.2-83,16.7-107.8c14.5-24.8,43.2-57,48.4-40.2
	c5.2,16.9,11.7,115.5-31.9,135.2c-43.5,19.8-36.4,7.9-30.6-15.3c9-35.4,70.4-116.3,74.4-105.7c3.8,10.1,2.6,39.1-15.2,73
	c-18.7,35.3-61.8,63.5-86.4,68.2c-24.6,4.7-75.4-20.7-85.9-39.4c-10.5-18.7-5.5-29.5,20.4-19.8c25.9,9.7,67.3,32.3,67.4,68.2
	c0,35.9-18.5,52.2-29.6,59.1c-11.1,6.9-16.2-18.8-12.2-31.3c7.7-23.9,26.9-50.3,32.9-47.1c6,3.2,6.7,63.9-2.2,71.7
	c-8.9,7.8-22.3-17.1-18.5-39.3c5-29.4,18.8-28,14.7-42.2c-4.1-14.3-27.2-42-46.9-45.4c-15.3-2.6-17.7,4.3-12.7,20.1
	c4.9,15.9,30.5,37.1,49.5,38.5c19.1,1.5,28.9,5.1,10.1-30.1C77.3,108.2,69.3,85.3,58.7,76"/>
</svg>
